<svg width="80" height="40" viewBox="0 0 80 40" fill="none" xmlns="http://www.w3.org/2000/svg">
<rect x="0.5" y="0.5" width="79" height="39" rx="19.5" fill="#FFD7D3" fill-opacity="0.3"/>
<path d="M28 18C30.2091 18 32 16.2091 32 14C32 11.7909 30.2091 10 28 10C25.7909 10 24 11.7909 24 14C24 16.2091 25.7909 18 28 18Z" stroke="#131313" stroke-width="1.5"/>
<path d="M36 25.5C36 27.985 36 30 28 30C20 30 20 27.985 20 25.5C20 23.015 23.582 21 28 21C32.418 21 36 23.015 36 25.5Z" stroke="#131313" stroke-width="1.5"/>
<path d="M52.3945 23.8862C51.8844 23.8862 51.3743 23.6895 50.9881 23.3032L46.2369 18.552C46.0255 18.3407 46.0255 17.9909 46.2369 17.7796C46.4482 17.5683 46.798 17.5683 47.0093 17.7796L51.7605 22.5308C52.1103 22.8806 52.6787 22.8806 53.0285 22.5308L57.7797 17.7796C57.991 17.5683 58.3408 17.5683 58.5521 17.7796C58.7634 17.9909 58.7634 18.3407 58.5521 18.552L53.8009 23.3032C53.4147 23.6895 52.9046 23.8862 52.3945 23.8862Z" fill="#131313"/>
<rect x="0.5" y="0.5" width="79" height="39" rx="19.5" stroke="#F36F00"/>
</svg>
