<svg width="178" height="38" viewBox="0 0 178 38" fill="none" xmlns="http://www.w3.org/2000/svg">
<rect y="0.976013" width="37.024" height="37.024" rx="10.68" fill="#131313"/>
<path d="M22.4367 20.2447L22.9311 17.0234H19.84V14.9329C19.84 14.0516 20.2718 13.1925 21.6562 13.1925H23.0614V10.4499C23.0614 10.4499 21.7862 10.2322 20.567 10.2322C18.0215 10.2322 16.3576 11.7751 16.3576 14.5682V17.0234H13.528V20.2447H16.3576V28.0322H19.84V20.2447H22.4367Z" fill="#F9F9F9"/>
<rect x="46.992" y="0.976196" width="37.024" height="37.024" rx="10.68" fill="#131313"/>
<path d="M65.4656 15.4517C63.2545 15.4517 61.4711 17.2352 61.4711 19.4463C61.4711 21.6574 63.2545 23.4409 65.4656 23.4409C67.6767 23.4409 69.4602 21.6574 69.4602 19.4463C69.4602 17.2352 67.6767 15.4517 65.4656 15.4517ZM65.4656 22.0433C64.0368 22.0433 62.8686 20.8786 62.8686 19.4463C62.8686 18.014 64.0333 16.8493 65.4656 16.8493C66.898 16.8493 68.0626 18.014 68.0626 19.4463C68.0626 20.8786 66.8945 22.0433 65.4656 22.0433ZM70.5553 15.2883C70.5553 15.8063 70.1381 16.22 69.6236 16.22C69.1056 16.22 68.6919 15.8029 68.6919 15.2883C68.6919 14.7738 69.1091 14.3566 69.6236 14.3566C70.1381 14.3566 70.5553 14.7738 70.5553 15.2883ZM73.201 16.234C73.1419 14.9859 72.8568 13.8803 71.9425 12.9695C71.0316 12.0586 69.9261 11.7735 68.678 11.7109C67.3917 11.6379 63.5362 11.6379 62.2498 11.7109C61.0052 11.77 59.8997 12.0551 58.9853 12.966C58.071 13.8768 57.7894 14.9824 57.7268 16.2305C57.6538 17.5168 57.6538 21.3723 57.7268 22.6586C57.7859 23.9067 58.071 25.0123 58.9853 25.9231C59.8997 26.834 61.0017 27.1191 62.2498 27.1816C63.5362 27.2547 67.3917 27.2547 68.678 27.1816C69.9261 27.1225 71.0316 26.8375 71.9425 25.9231C72.8533 25.0123 73.1384 23.9067 73.201 22.6586C73.274 21.3723 73.274 17.5203 73.201 16.234ZM71.5392 24.0388C71.268 24.7202 70.7431 25.2452 70.0582 25.5199C69.0326 25.9266 66.599 25.8327 65.4656 25.8327C64.3323 25.8327 61.8952 25.9231 60.8731 25.5199C60.1917 25.2487 59.6667 24.7237 59.3921 24.0388C58.9853 23.0132 59.0792 20.5797 59.0792 19.4463C59.0792 18.3129 58.9888 15.8759 59.3921 14.8538C59.6633 14.1724 60.1882 13.6474 60.8731 13.3727C61.8987 12.966 64.3323 13.0599 65.4656 13.0599C66.599 13.0599 69.0361 12.9695 70.0582 13.3727C70.7396 13.6439 71.2645 14.1689 71.5392 14.8538C71.946 15.8793 71.8521 18.3129 71.8521 19.4463C71.8521 20.5797 71.946 23.0167 71.5392 24.0388Z" fill="#F9F9F9"/>
<rect x="93.984" y="0.976196" width="37.024" height="37.024" rx="10.68" fill="#131313"/>
<path d="M121.346 15.9711C121.358 16.1292 121.358 16.2873 121.358 16.4454C121.358 21.2681 117.687 26.825 110.978 26.825C108.911 26.825 106.991 26.2264 105.376 25.1873C105.67 25.2212 105.952 25.2325 106.257 25.2325C107.963 25.2325 109.532 24.6565 110.786 23.6739C109.182 23.64 107.838 22.5896 107.375 21.1439C107.601 21.1778 107.827 21.2004 108.064 21.2004C108.392 21.2004 108.719 21.1552 109.024 21.0762C107.353 20.7373 106.099 19.269 106.099 17.4958V17.4507C106.585 17.7217 107.149 17.8911 107.748 17.9137C106.765 17.2586 106.122 16.1405 106.122 14.8755C106.122 14.1978 106.302 13.5767 106.618 13.0345C108.414 15.2482 111.114 16.6939 114.141 16.852C114.084 16.581 114.05 16.2986 114.05 16.0163C114.05 14.0058 115.677 12.3682 117.698 12.3682C118.749 12.3682 119.697 12.8086 120.364 13.5202C121.188 13.3621 121.979 13.0571 122.679 12.6392C122.408 13.4863 121.832 14.1979 121.075 14.6496C121.809 14.5706 122.521 14.3673 123.176 14.0849C122.679 14.8077 122.058 15.4515 121.346 15.9711Z" fill="#F9F9F9"/>
<rect x="140.976" y="0.976196" width="37.024" height="37.024" rx="10.68" fill="#131313"/>
<path d="M153.53 26.2482V17.6187H155.666V26.2482H153.53ZM153.41 15.9954V13.9106H155.786V15.9954H153.41ZM158.327 26.2482V19.7718C158.327 19.4187 158.316 19.0598 158.293 18.6953C158.27 18.3307 158.236 17.9719 158.191 17.6187H160.258L160.429 19.3275H160.224C160.497 18.7238 160.902 18.2624 161.437 17.9434C161.973 17.613 162.594 17.4478 163.3 17.4478C164.314 17.4478 165.077 17.7326 165.59 18.3022C166.102 18.8718 166.359 19.7604 166.359 20.968V26.2482H164.223V21.0705C164.223 20.3756 164.086 19.88 163.812 19.5838C163.55 19.2763 163.152 19.1225 162.616 19.1225C161.956 19.1225 161.432 19.3275 161.044 19.7376C160.657 20.1478 160.463 20.6946 160.463 21.3781V26.2482H158.327Z" fill="#F9F9F9"/>
</svg>
