<svg width="38" height="38" viewBox="0 0 38 38" fill="none" xmlns="http://www.w3.org/2000/svg">
<path d="M10.5012 11C10.5012 10.8011 10.5802 10.6103 10.7209 10.4697C10.8615 10.329 11.0523 10.25 11.2512 10.25H11.8092C12.7592 10.25 13.3292 10.889 13.6542 11.483C13.8712 11.879 14.0282 12.338 14.1512 12.754C14.1845 12.7514 14.2178 12.75 14.2512 12.75H26.7492C27.5792 12.75 28.1792 13.544 27.9512 14.343L26.1232 20.752C25.9593 21.3269 25.6126 21.8327 25.1355 22.1928C24.6584 22.553 24.077 22.7479 23.4792 22.748H17.5312C16.9287 22.748 16.3429 22.5502 15.8637 22.1849C15.3846 21.8196 15.0387 21.307 14.8792 20.726L14.1192 17.954L12.8592 13.706L12.8582 13.698C12.7022 13.131 12.5562 12.6 12.3382 12.204C12.1292 11.819 11.9612 11.75 11.8102 11.75H11.2512C11.0523 11.75 10.8615 11.671 10.7209 11.5303C10.5802 11.3897 10.5012 11.1989 10.5012 11ZM15.5742 17.59L16.3252 20.329C16.4752 20.871 16.9682 21.248 17.5312 21.248H23.4792C23.7509 21.248 24.0152 21.1595 24.2321 20.9958C24.449 20.8321 24.6067 20.6023 24.6812 20.341L26.4182 14.25H14.5862L15.5602 17.537L15.5742 17.59ZM19.0012 25.75C19.0012 26.2804 18.7905 26.7891 18.4154 27.1642C18.0404 27.5393 17.5317 27.75 17.0012 27.75C16.4708 27.75 15.9621 27.5393 15.587 27.1642C15.2119 26.7891 15.0012 26.2804 15.0012 25.75C15.0012 25.2196 15.2119 24.7109 15.587 24.3358C15.9621 23.9607 16.4708 23.75 17.0012 23.75C17.5317 23.75 18.0404 23.9607 18.4154 24.3358C18.7905 24.7109 19.0012 25.2196 19.0012 25.75ZM17.5012 25.75C17.5012 25.6174 17.4485 25.4902 17.3548 25.3964C17.261 25.3027 17.1338 25.25 17.0012 25.25C16.8686 25.25 16.7414 25.3027 16.6477 25.3964C16.5539 25.4902 16.5012 25.6174 16.5012 25.75C16.5012 25.8826 16.5539 26.0098 16.6477 26.1036C16.7414 26.1973 16.8686 26.25 17.0012 26.25C17.1338 26.25 17.261 26.1973 17.3548 26.1036C17.4485 26.0098 17.5012 25.8826 17.5012 25.75ZM26.0012 25.75C26.0012 26.2804 25.7905 26.7891 25.4154 27.1642C25.0404 27.5393 24.5317 27.75 24.0012 27.75C23.4708 27.75 22.9621 27.5393 22.587 27.1642C22.2119 26.7891 22.0012 26.2804 22.0012 25.75C22.0012 25.2196 22.2119 24.7109 22.587 24.3358C22.9621 23.9607 23.4708 23.75 24.0012 23.75C24.5317 23.75 25.0404 23.9607 25.4154 24.3358C25.7905 24.7109 26.0012 25.2196 26.0012 25.75ZM24.5012 25.75C24.5012 25.6174 24.4485 25.4902 24.3548 25.3964C24.261 25.3027 24.1338 25.25 24.0012 25.25C23.8686 25.25 23.7414 25.3027 23.6477 25.3964C23.5539 25.4902 23.5012 25.6174 23.5012 25.75C23.5012 25.8826 23.5539 26.0098 23.6477 26.1036C23.7414 26.1973 23.8686 26.25 24.0012 26.25C24.1338 26.25 24.261 26.1973 24.3548 26.1036C24.4485 26.0098 24.5012 25.8826 24.5012 25.75Z" fill="#131313"/>
</svg>
