<svg width="45" height="44" viewBox="0 0 45 44" fill="none" xmlns="http://www.w3.org/2000/svg">
<mask id="mask0_255_51" style="mask-type:luminance" maskUnits="userSpaceOnUse" x="10" y="10" width="25" height="24">
<path d="M10.5012 22C10.5012 15.3726 15.8738 10 22.5012 10C29.1286 10 34.5012 15.3726 34.5012 22C34.5012 28.6274 29.1286 34 22.5012 34C15.8738 34 10.5012 28.6274 10.5012 22Z" fill="white"/>
</mask>
<g mask="url(#mask0_255_51)">
<path fill-rule="evenodd" clip-rule="evenodd" d="M10.5012 10V34H34.5012V10H10.5012Z" fill="#2E42A5"/>
<mask id="mask1_255_51" style="mask-type:luminance" maskUnits="userSpaceOnUse" x="10" y="10" width="25" height="24">
<path fill-rule="evenodd" clip-rule="evenodd" d="M10.4983 10V34H34.4983V10H10.4983Z" fill="white"/>
</mask>
<g mask="url(#mask1_255_51)">
<mask id="mask2_255_51" style="mask-type:luminance" maskUnits="userSpaceOnUse" x="10" y="10" width="25" height="24">
<path d="M10.4973 10H34.4973V34H10.4973V10Z" fill="white"/>
</mask>
<g mask="url(#mask2_255_51)">
<path d="M7.83423 32.2848L13.1155 35.2628L34.6264 13.2372L37.4121 8.81177L31.7647 7.81641L22.9908 17.3079L15.9288 23.7029L7.83423 32.2848Z" fill="#F9F9F9"/>
<path d="M8.55981 34.3718L11.2504 36.1L36.4144 8.40105H32.6366L8.55981 34.3718Z" fill="#F50100"/>
<path d="M37.1805 32.2848L31.8992 35.2628L10.3883 13.2372L7.60254 8.81177L13.2501 7.81641L22.0239 17.3079L29.0859 23.7029L37.1805 32.2848Z" fill="#F9F9F9"/>
<path d="M36.9942 33.7822L34.3036 35.5104L23.5885 23.6511L20.4117 22.326L7.32837 8.82683H11.1062L24.1822 22.0056L27.6555 23.5945L36.9942 33.7822Z" fill="#F50100"/>
<path fill-rule="evenodd" clip-rule="evenodd" d="M25.3412 7.9987H19.6746V17.9987H9.02856V25.9987H19.6746V35.9987H25.3412V25.9987H36.0286V17.9987H25.3412V7.9987Z" fill="#F50100"/>
<mask id="mask3_255_51" style="mask-type:luminance" maskUnits="userSpaceOnUse" x="9" y="7" width="28" height="29">
<path fill-rule="evenodd" clip-rule="evenodd" d="M25.3393 7.99805H19.6727V17.998H9.02661V25.998H19.6727V35.9981H25.3393V25.998H36.0266V17.998H25.3393V7.99805Z" fill="white"/>
</mask>
<g mask="url(#mask3_255_51)">
<path d="M19.6688 7.99837V5.99837H18.1688V7.99837H19.6688ZM25.3354 7.99837H26.8354V5.99837H25.3354V7.99837ZM19.6688 17.9984V19.9984H21.1688V17.9984H19.6688ZM9.0227 17.9984V15.9984H7.52271V17.9984H9.0227ZM9.0227 25.9984H7.52271V27.9984H9.0227V25.9984ZM19.6688 25.9984H21.1688V23.9984H19.6688V25.9984ZM19.6688 35.9984H18.1688V37.9984H19.6688V35.9984ZM25.3354 35.9984V37.9984H26.8354V35.9984H25.3354ZM25.3354 25.9984V23.9984H23.8354V25.9984H25.3354ZM36.0227 25.9984V27.9984H37.5227V25.9984H36.0227ZM36.0227 17.9984H37.5227V15.9984H36.0227V17.9984ZM25.3354 17.9984H23.8354V19.9984H25.3354V17.9984ZM19.6688 9.99837H25.3354V5.99837H19.6688V9.99837ZM21.1688 17.9984V7.99837H18.1688V17.9984H21.1688ZM9.0227 19.9984H19.6688V15.9984H9.0227V19.9984ZM10.5227 25.9984V17.9984H7.52271V25.9984H10.5227ZM19.6688 23.9984H9.0227V27.9984H19.6688V23.9984ZM21.1688 35.9984V25.9984H18.1688V35.9984H21.1688ZM25.3354 33.9984H19.6688V37.9984H25.3354V33.9984ZM23.8354 25.9984V35.9984H26.8354V25.9984H23.8354ZM36.0227 23.9984H25.3354V27.9984H36.0227V23.9984ZM34.5227 17.9984V25.9984H37.5227V17.9984H34.5227ZM25.3354 19.9984H36.0227V15.9984H25.3354V19.9984ZM23.8354 7.99837V17.9984H26.8354V7.99837H23.8354Z" fill="#F9F9F9"/>
</g>
</g>
</g>
</g>
</svg>
