<svg width="178" height="38" viewBox="0 0 178 38" fill="none" xmlns="http://www.w3.org/2000/svg">
<rect y="0.239746" width="37.024" height="37.024" rx="10.68" fill="#F9F9F9"/>
<path d="M22.4367 19.5085L22.9311 16.2871H19.8401V14.1966C19.8401 13.3153 20.2719 12.4563 21.6562 12.4563H23.0614V9.7136C23.0614 9.7136 21.7862 9.49597 20.567 9.49597C18.0215 9.49597 16.3576 11.0389 16.3576 13.8319V16.2871H13.528V19.5085H16.3576V27.296H19.8401V19.5085H22.4367Z" fill="#2A2F2F"/>
<rect x="46.992" y="0.23999" width="37.024" height="37.024" rx="10.68" fill="#F9F9F9"/>
<path d="M65.4657 14.7155C63.2546 14.7155 61.4711 16.4989 61.4711 18.71C61.4711 20.9211 63.2546 22.7046 65.4657 22.7046C67.6768 22.7046 69.4603 20.9211 69.4603 18.71C69.4603 16.4989 67.6768 14.7155 65.4657 14.7155ZM65.4657 21.307C64.0368 21.307 62.8687 20.1424 62.8687 18.71C62.8687 17.2777 64.0334 16.113 65.4657 16.113C66.898 16.113 68.0627 17.2777 68.0627 18.71C68.0627 20.1424 66.8946 21.307 65.4657 21.307ZM70.5554 14.5521C70.5554 15.0701 70.1382 15.4838 69.6237 15.4838C69.1057 15.4838 68.692 15.0666 68.692 14.5521C68.692 14.0375 69.1091 13.6203 69.6237 13.6203C70.1382 13.6203 70.5554 14.0375 70.5554 14.5521ZM73.2011 15.4977C73.142 14.2496 72.8569 13.1441 71.9425 12.2332C71.0317 11.3223 69.9261 11.0373 68.678 10.9747C67.3917 10.9017 63.5362 10.9017 62.2499 10.9747C61.0053 11.0338 59.8997 11.3189 58.9854 12.2297C58.0711 13.1406 57.7895 14.2461 57.7269 15.4942C57.6539 16.7805 57.6539 20.636 57.7269 21.9224C57.786 23.1705 58.0711 24.276 58.9854 25.1869C59.8997 26.0977 61.0018 26.3828 62.2499 26.4454C63.5362 26.5184 67.3917 26.5184 68.678 26.4454C69.9261 26.3863 71.0317 26.1012 71.9425 25.1869C72.8534 24.276 73.1385 23.1705 73.2011 21.9224C73.2741 20.636 73.2741 16.784 73.2011 15.4977ZM71.5393 23.3026C71.2681 23.984 70.7431 24.5089 70.0582 24.7836C69.0327 25.1903 66.5991 25.0965 65.4657 25.0965C64.3323 25.0965 61.8953 25.1869 60.8732 24.7836C60.1918 24.5124 59.6668 23.9875 59.3921 23.3026C58.9854 22.277 59.0793 19.8434 59.0793 18.71C59.0793 17.5767 58.9889 15.1396 59.3921 14.1175C59.6633 13.4361 60.1883 12.9111 60.8732 12.6365C61.8988 12.2297 64.3323 12.3236 65.4657 12.3236C66.5991 12.3236 69.0361 12.2332 70.0582 12.6365C70.7396 12.9076 71.2646 13.4326 71.5393 14.1175C71.946 15.1431 71.8521 17.5767 71.8521 18.71C71.8521 19.8434 71.946 22.2805 71.5393 23.3026Z" fill="#2A2F2F"/>
<rect x="93.984" y="0.23999" width="37.024" height="37.024" rx="10.68" fill="#F9F9F9"/>
<path d="M121.346 15.2349C121.358 15.393 121.358 15.5511 121.358 15.7092C121.358 20.5319 117.687 26.0888 110.978 26.0888C108.911 26.0888 106.991 25.4902 105.376 24.4511C105.67 24.485 105.952 24.4963 106.257 24.4963C107.962 24.4963 109.532 23.9203 110.786 22.9377C109.182 22.9038 107.838 21.8534 107.375 20.4077C107.601 20.4416 107.827 20.4642 108.064 20.4642C108.392 20.4642 108.719 20.419 109.024 20.3399C107.353 20.0011 106.099 18.5328 106.099 16.7596V16.7144C106.585 16.9855 107.149 17.1549 107.748 17.1775C106.765 16.5224 106.122 15.4043 106.122 14.1393C106.122 13.4616 106.302 12.8404 106.618 12.2983C108.414 14.512 111.114 15.9577 114.141 16.1158C114.084 15.8448 114.05 15.5624 114.05 15.2801C114.05 13.2696 115.677 11.632 117.698 11.632C118.749 11.632 119.697 12.0724 120.364 12.784C121.188 12.6259 121.979 12.3209 122.679 11.903C122.408 12.7501 121.832 13.4617 121.075 13.9134C121.809 13.8344 122.521 13.6311 123.176 13.3487C122.679 14.0715 122.058 14.7153 121.346 15.2349Z" fill="#2A2F2F"/>
<rect x="140.976" y="0.23999" width="37.024" height="37.024" rx="10.68" fill="#F9F9F9"/>
<path d="M153.53 25.512V16.8825H155.666V25.512H153.53ZM153.41 15.2592V13.1744H155.786V15.2592H153.41ZM158.327 25.512V19.0356C158.327 18.6825 158.316 18.3236 158.293 17.9591C158.27 17.5945 158.236 17.2357 158.191 16.8825H160.258L160.429 18.5913H160.224C160.497 17.9875 160.902 17.5262 161.437 17.2072C161.973 16.8768 162.594 16.7116 163.3 16.7116C164.314 16.7116 165.077 16.9964 165.59 17.566C166.102 18.1356 166.359 19.0242 166.359 20.2318V25.512H164.223V20.3343C164.223 19.6394 164.086 19.1438 163.812 18.8476C163.55 18.5401 163.152 18.3863 162.616 18.3863C161.956 18.3863 161.432 18.5913 161.044 19.0014C160.657 19.4115 160.463 19.9584 160.463 20.6419V25.512H158.327Z" fill="#2A2F2F"/>
</svg>
